<?xml version="1.0" encoding="UTF-8" standalone="no"?><!DOCTYPE svg PUBLIC "-//W3C//DTD SVG 1.1//EN" "http://www.w3.org/Graphics/SVG/1.1/DTD/svg11.dtd"><svg width="100%" height="100%" viewBox="0 0 285 65" version="1.1" xmlns="http://www.w3.org/2000/svg" xmlns:xlink="http://www.w3.org/1999/xlink" xml:space="preserve" style="fill-rule:evenodd;clip-rule:evenodd;stroke-linejoin:round;stroke-miterlimit:1.41421;"><g id="Logo"><g><path d="M100.112,62.788l-8.736,0l-16.8,-61.068l7.296,0l14.016,54.254l0.192,0l14.016,-54.254l7.104,0l-17.088,61.068Z" style="fill:#fff;fill-rule:nonzero;"/><path d="M167.024,32.168c0,4.773 -0.512,9.128 -1.536,13.067c-1.024,3.939 -2.496,7.317 -4.416,10.135c-1.92,2.818 -4.256,5.003 -7.008,6.555c-2.752,1.553 -5.888,2.329 -9.408,2.329c-3.52,0 -6.672,-0.776 -9.456,-2.329c-2.784,-1.552 -5.152,-3.737 -7.104,-6.555c-1.952,-2.818 -3.44,-6.196 -4.464,-10.135c-1.024,-3.939 -1.536,-8.294 -1.536,-13.067c0,-4.715 0.496,-9.042 1.488,-12.981c0.992,-3.939 2.448,-7.303 4.368,-10.092c1.92,-2.789 4.272,-4.959 7.056,-6.512c2.784,-1.553 6,-2.329 9.648,-2.329c3.52,0 6.656,0.776 9.408,2.329c2.752,1.553 5.088,3.723 7.008,6.512c1.92,2.789 3.392,6.153 4.416,10.092c1.024,3.939 1.536,8.266 1.536,12.981Zm-7.008,0c0,-3.68 -0.32,-7.13 -0.96,-10.351c-0.64,-3.22 -1.616,-6.009 -2.928,-8.366c-1.312,-2.358 -2.928,-4.227 -4.848,-5.607c-1.92,-1.38 -4.128,-2.07 -6.624,-2.07c-2.624,0 -4.912,0.69 -6.864,2.07c-1.952,1.38 -3.568,3.249 -4.848,5.607c-1.28,2.357 -2.24,5.146 -2.88,8.366c-0.64,3.221 -0.96,6.671 -0.96,10.351c0,3.68 0.32,7.13 0.96,10.35c0.64,3.22 1.6,6.038 2.88,8.453c1.28,2.415 2.896,4.313 4.848,5.693c1.952,1.38 4.24,2.07 6.864,2.07c2.56,0 4.8,-0.69 6.72,-2.07c1.92,-1.38 3.52,-3.278 4.8,-5.693c1.28,-2.415 2.24,-5.233 2.88,-8.453c0.64,-3.22 0.96,-6.67 0.96,-10.35Z" style="fill:#fff;fill-rule:nonzero;"/><path d="M188.72,6.896l0,55.892l-6.624,0l0,-55.892l-13.056,0l0,-5.176l32.832,0l0,5.176l-13.152,0Z" style="fill:#fff;fill-rule:nonzero;"/><path d="M209.648,62.788l0,-61.068l27.36,0l0,5.348l-20.832,0l0,21.477l19.488,0l0,5.089l-19.488,0l0,23.72l21.792,0l0,5.434l-28.32,0Z" style="fill:#fff;fill-rule:nonzero;"/><path d="M277.424,62.788l-12.288,-28.291l-8.736,0l0,28.291l-6.624,0l0,-61.068l16.32,0c2.24,0 4.4,0.274 6.48,0.82c2.08,0.546 3.936,1.452 5.568,2.717c1.632,1.265 2.944,2.932 3.936,5.002c0.992,2.071 1.488,4.601 1.488,7.591c0,2.587 -0.368,4.816 -1.104,6.684c-0.736,1.869 -1.696,3.436 -2.88,4.701c-1.184,1.265 -2.496,2.243 -3.936,2.933c-1.44,0.69 -2.864,1.121 -4.272,1.294l13.248,29.326l-7.2,0Zm-0.384,-44.679c0,-2.186 -0.336,-4.011 -1.008,-5.478c-0.672,-1.466 -1.568,-2.63 -2.688,-3.493c-1.12,-0.862 -2.4,-1.466 -3.84,-1.811c-1.44,-0.345 -2.928,-0.518 -4.464,-0.518l-8.64,0l0,22.944l8.928,0c3.648,0 6.512,-1.021 8.592,-3.062c2.08,-2.042 3.12,-4.902 3.12,-8.582Z" style="fill:#fff;fill-rule:nonzero;"/></g><g id="STAR-LOGO"><circle cx="32" cy="32.254" r="32" style="fill:#ff5252;"/><path d="M32,0.254l7.184,22.112l23.25,0l-18.809,13.665l7.184,22.112l-18.809,-13.666l-18.809,13.666l7.184,-22.112l-18.809,-13.665l23.25,0l7.184,-22.112Z" style="fill:#3f51b5;"/></g></g></svg>